<svg width="73" height="74" viewBox="0 0 73 74" fill="none" xmlns="http://www.w3.org/2000/svg">
<path d="M21.9842 60.0362H66.4496C65.0979 59.1366 63.9316 57.5362 62.9235 55.5155C58.8549 47.3783 57.4082 32.3696 57.4082 28.3914C57.4082 27.1979 57.3178 26.0271 57.137 24.8833L52.8966 29.1237C52.987 32.3244 53.6063 38.8613 54.9626 45.3078C55.6904 48.7752 56.6668 52.3872 57.9598 55.5155H26.5048L21.9842 60.0362ZM47.2141 15.2362C44.7636 12.9203 41.7126 11.3384 38.4078 10.6703L34.8048 9.93344L31.2018 10.6613C27.1142 11.4941 23.44 13.714 20.8013 16.9451C18.1625 20.1761 16.7215 24.2198 16.7221 28.3914C16.7221 31.2304 16.1163 38.3233 14.6471 45.3078C14.4211 46.3837 14.1724 47.4732 13.8967 48.5536L6.42396 56.0263C6.51438 55.8591 6.60479 55.6918 6.69068 55.5155C10.7503 47.3783 12.2014 32.3696 12.2014 28.3914C12.2014 17.4513 19.977 8.31955 30.3067 6.23552C30.2436 5.60693 30.313 4.9721 30.5103 4.37197C30.7076 3.77183 31.0286 3.21972 31.4524 2.75123C31.8762 2.28275 32.3935 1.90829 32.9709 1.65201C33.5484 1.39574 34.1731 1.26333 34.8048 1.26333C35.4366 1.26333 36.0613 1.39574 36.6387 1.65201C37.2161 1.90829 37.7334 2.28275 38.1573 2.75123C38.5811 3.21972 38.902 3.77183 39.0993 4.37197C39.2966 4.9721 39.366 5.60693 39.3029 6.23552C43.5614 7.09445 47.3859 9.15136 50.4102 12.0401L47.2141 15.2362V15.2362ZM43.8462 64.5569C43.8462 66.9548 42.8936 69.2545 41.198 70.9501C39.5024 72.6457 37.2027 73.5982 34.8048 73.5982C32.4069 73.5982 30.1072 72.6457 28.4116 70.9501C26.716 69.2545 25.7635 66.9548 25.7635 64.5569H43.8462ZM1.46477 67.3823C1.01516 67.8319 0.762573 68.4417 0.762573 69.0776C0.762573 69.7134 1.01516 70.3232 1.46477 70.7728C1.91438 71.2224 2.52418 71.475 3.16003 71.475C3.79587 71.475 4.40567 71.2224 4.85529 70.7728L71.5354 4.09271C71.758 3.87009 71.9346 3.60579 72.0551 3.31492C72.1756 3.02405 72.2376 2.71229 72.2376 2.39746C72.2376 2.08262 72.1756 1.77086 72.0551 1.47999C71.9346 1.18912 71.758 0.924823 71.5354 0.702198C71.3128 0.479574 71.0485 0.302979 70.7576 0.182495C70.4667 0.062012 70.155 0 69.8401 0C69.5253 0 69.2135 0.062012 68.9227 0.182495C68.6318 0.302979 68.3675 0.479574 68.1449 0.702198L1.46477 67.3823Z" fill="black" style="mix-blend-mode:exclusion"/>
</svg>
