<svg width="73" height="73" viewBox="0 0 73 73" fill="none" xmlns="http://www.w3.org/2000/svg">
<g clip-path="url(#clip0_36_23)">
<path d="M16.8534 6.43107C16.5865 6.08778 16.2496 5.80519 15.8651 5.60209C15.4807 5.39899 15.0574 5.28002 14.6234 5.25308C14.1894 5.22614 13.7546 5.29186 13.348 5.44585C12.9414 5.59985 12.5721 5.83861 12.2649 6.14627L7.59047 10.8252C5.40698 13.0132 4.6023 16.1099 5.55616 18.8268C9.5151 30.0724 15.9551 40.2824 24.3984 48.6995C32.8156 57.1427 43.0255 63.5826 54.2711 67.5417C56.988 68.4956 60.0847 67.6909 62.2727 65.5074L66.9471 60.833C67.2547 60.5257 67.4935 60.1565 67.6475 59.7499C67.8015 59.3432 67.8672 58.9085 67.8403 58.4745C67.8133 58.0405 67.6944 57.6172 67.4912 57.2327C67.2881 56.8482 67.0056 56.5114 66.6623 56.2445L56.233 48.1344C55.8663 47.8499 55.4397 47.6525 54.9855 47.5569C54.5313 47.4614 54.0613 47.4703 53.611 47.5829L43.7107 50.0557C42.3893 50.386 41.0048 50.3684 39.6921 50.0048C38.3793 49.6412 37.1832 48.9438 36.22 47.9807L25.1172 36.8734C24.1532 35.9106 23.455 34.7147 23.0906 33.4019C22.7262 32.0892 22.7079 30.7045 23.0377 29.3826L25.515 19.4823C25.6276 19.032 25.6364 18.562 25.5409 18.1078C25.4454 17.6536 25.2479 17.2271 24.9635 16.8603L16.8534 6.43107ZM8.85174 2.73767C9.64284 1.94632 10.5932 1.33233 11.6398 0.936457C12.6864 0.540584 13.8052 0.371894 14.922 0.441586C16.0388 0.511278 17.128 0.817758 18.1173 1.34068C19.1065 1.86359 19.9732 2.59098 20.6598 3.47454L28.7699 13.8992C30.2572 15.8115 30.7816 18.3024 30.1939 20.6531L27.7211 30.5534C27.5932 31.0662 27.6001 31.6034 27.7411 32.1127C27.8821 32.622 28.1524 33.0862 28.5258 33.4602L39.6331 44.5676C40.0076 44.9417 40.4725 45.2124 40.9827 45.3534C41.4929 45.4944 42.031 45.5009 42.5444 45.3722L52.4402 42.8994C53.6003 42.6094 54.8111 42.5869 55.9812 42.8336C57.1512 43.0802 58.2499 43.5897 59.1941 44.3235L69.6188 52.4336C73.3664 55.3494 73.71 60.8872 70.3557 64.2371L65.6813 68.9115C62.336 72.2568 57.3361 73.726 52.6753 72.085C40.746 67.8876 29.9148 61.0583 20.9853 52.1035C12.0311 43.1753 5.20178 32.3457 1.00383 20.4181C-0.632656 15.7618 0.836567 10.7574 4.18187 7.41206L8.85626 2.73767H8.85174Z" fill="white" style="mix-blend-mode:exclusion"/>
<path fill-rule="evenodd" clip-rule="evenodd" d="M50.7222 7.86865C50.9321 7.65815 51.1816 7.49115 51.4562 7.3772C51.7308 7.26325 52.0252 7.20459 52.3225 7.20459C52.6198 7.20459 52.9142 7.26325 53.1888 7.3772C53.4634 7.49115 53.7128 7.65815 53.9228 7.86865L59.1035 13.0539L64.2842 7.86865C64.7087 7.44422 65.2843 7.20578 65.8845 7.20578C66.4848 7.20578 67.0604 7.44422 67.4849 7.86865C67.9093 8.29308 68.1477 8.86874 68.1477 9.46897C68.1477 10.0692 67.9093 10.6449 67.4849 11.0693L62.2996 16.25L67.4849 21.4307C67.9093 21.8551 68.1477 22.4308 68.1477 23.031C68.1477 23.6313 67.9093 24.2069 67.4849 24.6314C67.0604 25.0558 66.4848 25.2942 65.8845 25.2942C65.2843 25.2942 64.7087 25.0558 64.2842 24.6314L59.1035 19.4461L53.9228 24.6314C53.7127 24.8415 53.4632 25.0082 53.1886 25.122C52.914 25.2357 52.6197 25.2942 52.3225 25.2942C52.0253 25.2942 51.731 25.2357 51.4564 25.122C51.1818 25.0082 50.9323 24.8415 50.7222 24.6314C50.512 24.4212 50.3453 24.1717 50.2316 23.8971C50.1178 23.6225 50.0593 23.3282 50.0593 23.031C50.0593 22.7338 50.1178 22.4395 50.2316 22.1649C50.3453 21.8904 50.512 21.6409 50.7222 21.4307L55.9074 16.25L50.7222 11.0693C50.5117 10.8593 50.3447 10.6099 50.2307 10.3353C50.1168 10.0607 50.0581 9.76629 50.0581 9.46897C50.0581 9.17166 50.1168 8.87727 50.2307 8.60266C50.3447 8.32805 50.5117 8.07862 50.7222 7.86865Z" fill="white" style="mix-blend-mode:exclusion"/>
</g>
<defs>
<clipPath id="clip0_36_23">
<rect width="72.331" height="72.331" fill="white" transform="translate(0.334595 0.427734)"/>
</clipPath>
</defs>
</svg>
